<svg id="confidential" fill="white" height="512" viewBox="0 0 32 32" width="512" xmlns="http://www.w3.org/2000/svg"><path d="m29 32h-26c-1.6543 0-3-1.3457-3-3v-26c0-1.6543 1.3457-3 3-3h26c1.6543 0 3 1.3457 3 3v26c0 1.6543-1.3457 3-3 3zm-26-30c-.5518 0-1 .4482-1 1v26c0 .5518.4482 1 1 1h26c.5518 0 1-.4482 1-1v-26c0-.5518-.4482-1-1-1z"/><path d="m31 8h-30c-.5527 0-1-.4473-1-1s.4473-1 1-1h30c.5527 0 1 .4473 1 1s-.4473 1-1 1z"/><circle cx="4" cy="4" r="1"/><circle cx="7" cy="4" r="1"/><circle cx="10" cy="4" r="1"/><path d="m17 22h-2c-.5527 0-1-.4473-1-1s.4473-1 1-1h2c.5527 0 1 .4473 1 1s-.4473 1-1 1z"/><path d="m16 24c-.5527 0-1-.4473-1-1v-2c0-.5527.4473-1 1-1s1 .4473 1 1v2c0 .5527-.4473 1-1 1z"/><path d="m19.833 28h-7.666c-1.6543 0-3-1.3457-3-3v-6c0-1.6543 1.3457-3 3-3h7.666c1.6543 0 3 1.3457 3 3v6c0 1.6543-1.3457 3-3 3zm-7.666-10c-.5518 0-1 .4482-1 1v6c0 .5518.4482 1 1 1h7.666c.5518 0 1-.4482 1-1v-6c0-.5518-.4482-1-1-1z"/><path d="m20 18h-8c-.5527 0-1-.4473-1-1v-2c0-2.7568 2.2432-5 5-5s5 2.2432 5 5v2c0 .5527-.4473 1-1 1zm-7-2h6v-1c0-1.6543-1.3457-3-3-3s-3 1.3457-3 3z"/></svg>