<svg id="Capa_1" enable-background="new 0 0 512.665 512.665"
     fill="#FF585D" height="512" viewBox="0 0 512.665 512.665" width="512" xmlns="http://www.w3.org/2000/svg"><g><path d="m430.668 174.339c0-42.09-30.74-77.138-70.947-83.87-6.785-50.813-50.414-90.136-103.055-90.136s-96.269 39.322-103.055 90.136c-40.207 6.732-70.947 41.78-70.947 83.87 0 46.889 38.146 85.035 85.035 85.035h28.962v237.957c0 8.284 6.716 15 15 15s15-6.716 15-15v-27.937h60.007v27.937c0 8.284 6.715 15 15 15 8.284 0 15-6.716 15-15v-237.956h28.965c46.889 0 85.035-38.147 85.035-85.036zm-144 195.049h-60.007v-40.007h60.007zm-60.007 70.007v-40.007h60.007v40.007zm60.007-140.014h-60.007v-40.007h60.007zm15-108.901c-8.285 0-15 6.716-15 15v23.895h-60.007v-23.895c0-8.284-6.716-15-15-15s-15 6.716-15 15v23.895h-28.962c-30.347 0-55.035-24.688-55.035-55.035 0-30.346 24.688-55.035 55.032-55.037h.001.002c7.286 0 14.375 1.408 21.068 4.185 1.879.779 3.826 1.148 5.741 1.148 5.883 0 11.467-3.483 13.861-9.257 3.174-7.651-.456-16.428-8.108-19.603-5.297-2.197-10.751-3.832-16.32-4.913 6.342-34.389 36.527-60.529 72.725-60.529 36.197 0 66.384 26.141 72.725 60.529-5.569 1.082-11.025 2.717-16.32 4.914-7.652 3.174-11.281 11.95-8.106 19.603 2.395 5.772 7.978 9.256 13.86 9.256 1.915 0 3.863-.369 5.742-1.149 6.692-2.775 13.779-4.184 21.066-4.184h.002.001c30.345.002 55.032 24.691 55.032 55.037 0 30.347-24.689 55.035-55.035 55.035h-28.965v-23.895c0-8.284-6.716-15-15-15z"/><path d="m103.912 285.914c-22.413 0-42.716 11.871-53.867 30.558-.846-.045-1.694-.067-2.545-.067-26.191 0-47.5 21.309-47.5 47.5s21.309 47.5 47.5 47.5h56.412c34.598 0 62.745-28.148 62.745-62.746 0-34.599-28.147-62.745-62.745-62.745zm0 95.49h-56.412c-9.649 0-17.5-7.851-17.5-17.5s7.851-17.5 17.5-17.5c2.076 0 4.102.356 6.02 1.059 3.796 1.393 7.996 1.19 11.644-.558 3.647-1.748 6.435-4.896 7.729-8.728 4.497-13.316 16.963-22.264 31.021-22.264 18.055 0 32.745 14.688 32.745 32.744-.002 18.057-14.692 32.747-32.747 32.747z"/><path d="m465.165 376.41c-.852 0-1.7.022-2.545.067-11.151-18.686-31.454-30.558-53.867-30.558-34.598 0-62.745 28.146-62.745 62.744 0 34.599 28.147 62.746 62.745 62.746h56.412c26.191 0 47.5-21.309 47.5-47.5s-21.309-47.499-47.5-47.499zm0 65h-56.412c-18.056 0-32.745-14.689-32.745-32.746 0-18.056 14.689-32.744 32.745-32.744 14.058 0 26.523 8.947 31.02 22.264 1.294 3.832 4.08 6.978 7.728 8.728 3.647 1.747 7.846 1.948 11.643.559 1.919-.703 3.945-1.06 6.022-1.06 9.649 0 17.5 7.851 17.5 17.5-.001 9.648-7.852 17.499-17.501 17.499z"/><path d="m422.665 281.335c0 8.284 6.716 15 15 15h4.999v4.998c0 8.284 6.716 15 15 15s15-6.716 15-15v-4.998h4.999c8.284 0 15-6.716 15-15s-6.716-15-15-15h-4.999v-5c0-8.284-6.716-15-15-15s-15 6.716-15 15v5h-4.999c-8.284 0-15 6.716-15 15z"/><path d="m45.67 80.335h4.999v4.998c0 8.284 6.716 15 15 15s15-6.716 15-15v-4.998h4.999c8.284 0 15-6.716 15-15s-6.716-15-15-15h-4.999v-5c0-8.284-6.716-15-15-15s-15 6.716-15 15v5h-4.999c-8.284 0-15 6.716-15 15s6.716 15 15 15z"/></g></svg>