<svg id="bold" enable-background="new 0 0 24 24" fill="#FF585D" height="512" viewBox="0 0 24 24" width="512" xmlns="http://www.w3.org/2000/svg"><circle cx="5.5" cy="14.5" r="3"/><path d="m8.25 19h-5.5c-1.517 0-2.75 1.233-2.75 2.75v1.5c0 .414.336.75.75.75h9.5c.414 0 .75-.336.75-.75v-1.5c0-1.517-1.233-2.75-2.75-2.75z"/><path d="m22.25 0h-15.5c-.96 0-1.75.79-1.75 1.75v8.28c.16-.02.33-.03.5-.03 2.31 0 4.22 1.75 4.47 4h2.03v3.25c0 .33.21.62.53.72.07.02.15.03.22.03.24 0 .48-.12.62-.33l2.52-3.67h6.36c.96 0 1.75-.79 1.75-1.75v-10.5c0-.96-.79-1.75-1.75-1.75zm-8.125 6.25h.25c1.034 0 1.875.841 1.875 1.875 0 .813-.524 1.501-1.25 1.76v.365c0 .414-.336.75-.75.75s-.75-.336-.75-.75v-.25h-.5c-.414 0-.75-.336-.75-.75s.336-.75.75-.75h1.375c.207 0 .375-.168.375-.375s-.168-.375-.375-.375h-.25c-1.034 0-1.875-.841-1.875-1.875 0-.813.524-1.501 1.25-1.76v-.365c0-.414.336-.75.75-.75s.75.336.75.75v.25h.5c.414 0 .75.336.75.75s-.336.75-.75.75h-1.375c-.207 0-.375.168-.375.375s.168.375.375.375z"/></svg>