<svg id="Capa_1" enable-background="new 0 0 512 512" fill="white" height="512" viewBox="0 0 512 512" width="512" xmlns="http://www.w3.org/2000/svg"><g><g><path d="m510.311 156.647c-6.525-47.79-31.314-90.177-69.8-119.349-64.841-49.152-155.15-48.916-219.618.573-4.381 3.363-5.206 9.64-1.843 14.021 3.363 4.382 9.641 5.207 14.021 1.844 57.344-44.019 137.677-44.225 195.359-.501 34.222 25.942 56.264 63.629 62.066 106.118 5.798 42.459-5.318 84.634-31.299 118.756-53.656 70.47-154.775 84.24-225.406 30.7-57.662-43.734-78.995-120.998-51.879-187.891 2.075-5.118-.393-10.949-5.511-13.024-5.12-2.075-10.949.393-13.024 5.511-30.504 75.249-6.519 162.156 58.33 211.341 32.636 24.74 71.06 36.695 109.191 36.694 54.642 0 108.682-24.551 144.211-71.214 29.222-38.381 41.724-85.819 35.202-133.579z"/><path d="m355.926 390.872-82.913 21.618c-.168-2.707-.649-5.417-1.461-8.082-2.724-8.937-8.751-16.266-16.963-20.633l-30.729-16.375c-21.14-11.259-46.874-17.441-72.549-17.441-.25 0-.501 0-.751.001-25.577.12-50.896 6.378-74.084 18.174-3.329-8.585-11.679-14.692-21.436-14.692h-32.086c-12.657 0-22.954 10.297-22.954 22.953v100.402c0 12.641 10.297 22.925 22.954 22.925h32.086c11.149 0 20.466-7.962 22.545-18.485l126.346 28.891c3.861.891 7.713 1.278 11.532 1.278 12.421 0 24.457-4.111 35.015-8.446l123.372-50.63c16.203-6.677 29.736-23.848 22.909-42.495-5.966-16.437-21.997-23.88-40.833-18.963zm-297.903 85.925c0 1.586-1.366 2.926-2.982 2.926h-32.087c-1.601 0-2.954-1.34-2.954-2.926v-100.402c0-1.601 1.353-2.953 2.954-2.953h32.086c1.617 0 2.982 1.353 2.982 2.953v100.402zm308.223-42.963-123.36 50.625c-15.65 6.426-25.633 8.216-34.479 6.178l-130.385-29.815v-70.789c51.288-29.864 105.204-21.615 136.435-4.982l30.735 16.379c3.498 1.86 6.065 4.988 7.229 8.809 1.155 3.788.776 7.773-1.071 11.231-3.848 7.223-12.883 9.974-20.154 6.124l-50.653-26.727c-4.883-2.576-10.933-.706-13.51 4.178-2.578 4.885-.707 10.933 4.178 13.511l50.641 26.72c5.196 2.751 10.782 4.055 16.292 4.054 11.008 0 21.706-5.209 28.375-14.477l94.457-24.628c8.879-2.322 14.594-.153 16.995 6.461 2.42 6.61-4.209 14.051-11.725 17.148z"/><path d="m217.941 231.267h46.577v28.379c0 5.522 4.477 10 10 10h113.183c5.523 0 10-4.477 10-10v-28.379h46.577c5.519 0 9.995-4.472 10-9.991l.028-30.724c0-25.038-12.615-38.21-25.573-45.965 3.203-6.26 5.023-13.338 5.023-20.837 0-25.351-20.66-45.976-46.055-45.976-23.264 0-42.542 17.312-45.616 39.705-3.515-.86-7.184-1.326-10.962-1.326-3.787 0-7.465.468-10.989 1.333-3.071-22.397-22.351-39.712-45.617-39.712-25.394 0-46.055 20.625-46.055 45.976 0 7.499 1.82 14.578 5.023 20.838-12.945 7.753-25.545 20.923-25.545 45.964v30.715c.001 5.523 4.478 10 10.001 10zm159.76 18.38h-93.184v-20.715c0-2.336.15-4.505.441-6.525.004-.034.012-.067.016-.102 1.751-11.951 8.445-18.649 18.137-23.719 7.768 5.962 17.479 9.518 28.012 9.518 10.531 0 20.241-3.555 28.008-9.514 9.68 5.074 16.365 11.774 18.114 23.717.004.035.012.068.016.103.29 2.019.44 4.187.44 6.522zm56.587-38.379h-39.071c-4.298-14.016-13.584-22.611-23.064-28.294 2.294-4.481 3.873-9.382 4.585-14.559 3.552.865 7.223 1.31 10.964 1.31 10.533 0 20.244-3.556 28.012-9.518 11.354 5.939 18.593 14.111 18.593 30.337zm-72.642-87.518c0-14.323 11.689-25.976 26.056-25.976s26.055 11.653 26.055 25.976-11.688 25.975-26.055 25.975c-4.804 0-9.403-1.303-13.469-3.76-2.607-6.905-6.826-13.026-12.207-17.896-.243-1.43-.38-2.874-.38-4.319zm-4.467 38.379c0 14.323-11.689 25.975-26.056 25.975s-26.056-11.652-26.056-25.975 11.689-25.976 26.056-25.976 26.056 11.653 26.056 25.976zm-82.661-64.355c14.367 0 26.056 11.653 26.056 25.976 0 1.456-.139 2.909-.385 4.348-5.359 4.86-9.563 10.963-12.165 17.845-4.074 2.471-8.687 3.782-13.506 3.782-14.367 0-26.055-11.652-26.055-25.975s11.688-25.976 26.055-25.976zm-46.577 92.778c0-16.239 7.228-24.412 18.566-30.345 7.767 5.961 17.479 9.517 28.011 9.517 3.75 0 7.431-.447 10.991-1.316.712 5.176 2.289 10.076 4.582 14.557-9.491 5.681-18.787 14.276-23.088 28.301h-39.062z"/><path d="m195.066 87.876c2.559 0 5.119-.977 7.071-2.929l.028-.028c3.905-3.905 3.891-10.222-.014-14.128-3.905-3.904-10.25-3.892-14.156.014-3.905 3.905-3.905 10.237 0 14.142 1.953 1.952 4.512 2.929 7.071 2.929z"/></g></g></svg>