<?xml version="1.0" encoding="UTF-8"?>
<svg xmlns="http://www.w3.org/2000/svg" version="1.1" id="Capa_1" x="0px" y="0px" viewBox="0 0 512 512" fill="#174A5B"  style="enable-background:new 0 0 512 512;" xml:space="preserve" width="512" height="512">
<g>
	<path style="fill:none;stroke:white;stroke-width:30;stroke-miterlimit:10;" d="M436.745,233.195l0.009-97.712&#10;&#9;&#9;c0-16.628,13.48-30.108,30.108-30.108h0h0c16.629,0,30.111,13.47,30.114,30.099c0.008,41.919,0.018,115.039,0.023,158.417&#10;&#9;&#9;c0.157,22.081-10.431,44.189-26.811,57.952L376.5,431.416V497H256l-0.003-125.345c-0.121-40.89,33.603-75.127,74.24-74.555&#10;&#9;&#9;l63.905-63.905C405.906,221.43,424.98,221.43,436.745,233.195L436.745,233.195c11.764,11.764,11.764,30.838,0,42.603&#10;&#9;&#9;l-83.827,83.827"/>
	<path style="fill:none;stroke:white;stroke-width:30;stroke-miterlimit:10;" d="M75.255,233.195l-0.009-97.712&#10;&#9;&#9;c0-16.628-13.48-30.108-30.108-30.108h0h0c-16.629,0-30.111,13.47-30.114,30.099c-0.008,41.919-0.018,115.039-0.023,158.417&#10;&#9;&#9;c-0.157,22.081,10.431,44.189,26.812,57.952l93.687,79.573V497H256l0.003-125.345c0.121-40.89-33.603-75.127-74.24-74.555&#10;&#9;&#9;l-63.905-63.905C106.094,221.43,87.02,221.43,75.255,233.195L75.255,233.195c-11.764,11.764-11.764,30.838,0,42.603l83.827,83.827"/>
	<path style="fill:none;stroke:white;stroke-width:30;stroke-miterlimit:10;" d="M163.253,107.747L256,200.494l92.747-92.747&#10;&#9;&#9;C382.973,73.521,358.733,15,310.33,15h0C280.324,15,256,39.324,256,69.33v13.595V69.33C256,39.324,231.676,15,201.67,15h0&#10;&#9;&#9;C153.267,15,129.027,73.521,163.253,107.747z"/>
	<line style="fill:none;stroke:white;stroke-width:30;stroke-miterlimit:10;" x1="135.5" y1="431.416" x2="376.5" y2="431.416"/>
</g>















</svg>
