<?xml version="1.0" encoding="UTF-8" standalone="no"?>
<!-- Created with Inkscape (http://www.inkscape.org/) -->

<svg
   version="1.1"
   id="svg3345"
   xml:space="preserve"
   width="682.66669"
   fill="#174A5B"  height="682.66669"
   viewBox="0 0 682.66669 682.66669"
   xmlns="http://www.w3.org/2000/svg"><defs
     id="defs3349"><clipPath
       clipPathUnits="userSpaceOnUse"
       id="clipPath3359"><path
         d="M 0,512 H 512 V 0 H 0 Z"
         id="path3357" /></clipPath></defs><g
     id="g3351"
     transform="matrix(1.3333333,0,0,-1.3333333,0,682.66667)"><g
       id="g3353"><g
         id="g3355"
         clip-path="url(#clipPath3359)"><g
           id="g3361"
           transform="translate(211.1045,64)"><path
             d="M 0,0 H -144.484 C -175.697,0 -201,25.303 -201,56.516 v 270.968 c 0,31.213 25.303,56.516 56.516,56.516 H 234.484 C 265.697,384 291,358.697 291,327.484 V 56.516 C 291,25.303 265.697,0 234.484,0 H 90"
             style="fill:none;stroke:white;stroke-width:20;stroke-linecap:round;stroke-linejoin:round;stroke-miterlimit:10;stroke-dasharray:none;stroke-opacity:1"
             id="path3363" /></g><g
           id="g3365"
           transform="translate(103.7041,308.7998)"><path
             d="M 0,0 H -39.6 V -105.6 H 10e-4"
             style="fill:none;stroke:white;stroke-width:20;stroke-linecap:round;stroke-linejoin:round;stroke-miterlimit:10;stroke-dasharray:none;stroke-opacity:1"
             id="path3367" /></g><g
           id="g3369"
           transform="translate(100.7852,256)"><path
             d="M 0,0 H -36.681"
             style="fill:none;stroke:white;stroke-width:20;stroke-linecap:round;stroke-linejoin:round;stroke-miterlimit:10;stroke-dasharray:none;stroke-opacity:1"
             id="path3371" /></g><g
           id="g3373"
           transform="translate(151.7051,203.2002)"><path
             d="m 0,0 35.461,104.112 c 0.725,1.981 3.233,1.984 3.961,0.005 L 74.562,0"
             style="fill:none;stroke:white;stroke-width:20;stroke-linecap:round;stroke-linejoin:round;stroke-miterlimit:10;stroke-dasharray:none;stroke-opacity:1"
             id="path3375" /></g><g
           id="g3377"
           transform="translate(162.7637,229.1294)"><path
             d="M 0,0 H 52.622"
             style="fill:none;stroke:white;stroke-width:20;stroke-linecap:round;stroke-linejoin:round;stroke-miterlimit:10;stroke-dasharray:none;stroke-opacity:1"
             id="path3379" /></g><g
           id="g3381"
           transform="translate(333.6436,297.9443)"><path
             d="m 0,0 c 0,0 -18.949,15.928 -41.294,9.197 -20.518,-6.181 -23.388,-29.839 -8.544,-39.516 0,0 14.566,-6.498 30.721,-12.458 38.889,-14.344 22.138,-51.967 -9.169,-51.967 -15.678,0 -28.836,6.865 -36.8,15.653"
             style="fill:none;stroke:white;stroke-width:20;stroke-linecap:round;stroke-linejoin:round;stroke-miterlimit:10;stroke-dasharray:none;stroke-opacity:1"
             id="path3383" /></g><g
           id="g3385"
           transform="translate(380.9199,308.7998)"><path
             d="m 0,0 33.73,-51.658 33.455,51.39"
             style="fill:none;stroke:white;stroke-width:20;stroke-linecap:round;stroke-linejoin:round;stroke-miterlimit:10;stroke-dasharray:none;stroke-opacity:1"
             id="path3387" /></g><g
           id="g3389"
           transform="translate(414.5186,203.2002)"><path
             d="M 0,0 0.132,53.941"
             style="fill:none;stroke:white;stroke-width:20;stroke-linecap:round;stroke-linejoin:round;stroke-miterlimit:10;stroke-dasharray:none;stroke-opacity:1"
             id="path3391" /></g><g
           id="g3393"
           transform="translate(256.1045,64)"><path
             d="M 0,0 V 0"
             style="fill:none;stroke:white;stroke-width:20;stroke-linecap:round;stroke-linejoin:round;stroke-miterlimit:10;stroke-dasharray:none;stroke-opacity:1"
             id="path3395" /></g></g></g></g></svg>
